<?xml version="1.0" encoding="UTF-8"?>
<svg xmlns="http://www.w3.org/2000/svg" xmlns:xlink="http://www.w3.org/1999/xlink" width="40px" height="40px" viewBox="0 0 40 40" version="1.1">
<g id="surface1">
<rect x="0" y="0" width="40" height="40" style="fill:none;fill-opacity:1;stroke:none;"/>
<path style=" stroke:none;fill-rule:nonzero;fill:rgb(0%,0%,0%);fill-opacity:1;" d="M 12.601562 32.253906 C 14.617188 34.691406 16.679688 37.183594 20 37.183594 C 23.320312 37.183594 25.382812 34.691406 27.398438 32.253906 C 27.753906 31.824219 28.105469 31.398438 28.386719 31.074219 L 28.402344 31.054688 C 30.890625 28.171875 31.210938 24.007812 31.515625 19.996094 C 31.558594 19.402344 31.605469 18.808594 31.652344 18.285156 L 31.65625 18.230469 C 31.652344 13.445312 30.984375 9.625 29.1875 6.992188 C 27.421875 4.402344 24.515625 2.941406 20 2.820312 C 15.484375 2.941406 12.578125 4.402344 10.8125 6.992188 C 9.015625 9.625 8.347656 13.445312 8.34375 18.230469 C 8.390625 18.773438 8.4375 19.382812 8.484375 19.996094 C 8.792969 24.007812 9.109375 28.171875 11.597656 31.054688 C 11.878906 31.378906 12.242188 31.816406 12.601562 32.253906 Z M 20 38.234375 C 16.175781 38.234375 13.953125 35.546875 11.78125 32.921875 C 11.453125 32.523438 11.121094 32.128906 10.785156 31.738281 C 8.070312 28.597656 7.738281 24.253906 7.421875 20.070312 C 7.378906 19.476562 7.332031 18.886719 7.28125 18.292969 C 7.28125 13.265625 7.996094 9.238281 9.929688 6.402344 C 11.898438 3.519531 15.082031 1.894531 19.988281 1.765625 L 20.011719 1.765625 C 24.917969 1.894531 28.101562 3.519531 30.070312 6.402344 C 32.003906 9.238281 32.71875 13.265625 32.71875 18.269531 L 32.71875 18.3125 C 32.71875 18.332031 32.714844 18.351562 32.714844 18.371094 C 32.660156 18.976562 32.621094 19.523438 32.578125 20.070312 C 32.261719 24.253906 31.929688 28.597656 29.214844 31.738281 L 29.210938 31.738281 L 29.214844 31.738281 C 28.824219 32.191406 28.523438 32.554688 28.21875 32.921875 C 26.046875 35.546875 23.824219 38.234375 20 38.234375 Z M 20 38.234375 "/>
<path style=" stroke:none;fill-rule:evenodd;fill:rgb(80%,13.333333%,16.078431%);fill-opacity:1;" d="M 20 37.707031 C 15.859375 37.707031 13.640625 34.230469 11.191406 31.398438 C 8.214844 27.949219 8.21875 22.875 7.8125 18.269531 C 7.8125 8.460938 10.574219 2.542969 20 2.292969 C 29.425781 2.542969 32.1875 8.460938 32.1875 18.269531 C 31.78125 22.875 31.785156 27.949219 28.808594 31.398438 C 26.359375 34.230469 24.140625 37.707031 20 37.707031 Z M 20 37.707031 "/>
<path style="fill:none;stroke-width:1.098;stroke-linecap:butt;stroke-linejoin:miter;stroke:rgb(0%,0%,0%);stroke-opacity:1;stroke-miterlimit:2.613;" d="M 60.87626 21.120335 C 53.553791 44.480706 73.977645 71.568195 96.378 101.44161 C 118.778355 71.568195 139.202209 44.480706 131.87974 21.120335 C 126.552596 17.317922 120.114847 14.550819 112.453549 12.875498 C 118.232464 38.287666 107.841711 68.198729 96.378 101.44161 C 84.914289 68.198729 74.523536 38.287666 80.302451 12.875498 C 72.641153 14.550819 66.203404 17.317922 60.87626 21.120335 Z M 96.396824 82.598958 L 96.378 82.617782 M 96.396824 82.598958 L 96.509767 82.730725 L 96.547414 82.787196 M 96.378 82.617782 C 95.09798 84.217807 93.554426 85.573123 90.768499 84.97076 C 90.015546 87.041381 88.810821 88.133163 86.928438 88.716702 C 87.154324 90.27908 86.589609 91.502629 85.309589 91.9544 M 96.378 82.617782 L 96.490943 82.768372 C 97.733316 84.293102 99.27687 85.554299 101.987501 84.97076 C 102.740454 87.041381 103.945179 88.133163 105.827562 88.716702 C 105.601676 90.27908 106.166391 91.502629 107.446411 91.9544 M 96.378 69.026978 C 95.267394 71.756433 92.613234 75.031779 87.191972 73.845878 C 86.551962 77.460053 83.84133 80.114212 80.340098 79.530674 C 80.377746 81.789533 76.914162 85.667242 74.711774 85.573123 M 96.378 69.026978 C 97.488606 71.756433 100.142766 75.031779 105.564028 73.845878 C 106.204038 77.460053 108.91467 80.114212 112.415902 79.530674 C 112.378254 81.789533 115.841838 85.667242 118.044226 85.573123 M 96.378 52.687895 C 95.267394 55.41735 88.490816 60.424488 83.069554 59.257411 C 82.41072 62.871586 75.351784 67.163419 71.850552 66.57988 C 71.8882 68.857563 66.730471 74.109411 64.528083 74.034116 M 96.378 52.687895 C 97.488606 55.41735 104.265184 60.424488 109.686446 59.257411 C 110.34528 62.871586 117.404216 67.163419 120.905448 66.57988 C 120.8678 68.857563 126.025529 74.109411 128.227917 74.034116 M 96.378 33.901714 C 96.020347 36.555874 85.930775 41.826546 79.493026 41.487717 C 78.344773 44.970125 66.862237 51.803175 64.001016 51.501994 C 63.718658 54.062034 55.492645 62.589229 53.89262 62.40099 M 96.378 16.86615 C 95.305042 18.842652 84.123688 23.868614 78.740073 24.565096 C 78.608306 27.972209 63.963368 37.195884 59.74683 36.800584 C 56.433837 41.431246 49.883145 46.683094 45.403073 47.172513 M 96.378 16.86615 C 97.450958 18.842652 108.632312 23.868614 114.015927 24.565096 C 114.147694 27.972209 128.792632 37.195884 133.00917 36.800584 C 136.340987 41.431246 142.872855 46.683094 147.352927 47.172513 M 96.378 33.901714 C 96.735653 36.555874 106.825225 41.826546 113.262974 41.487717 C 114.411227 44.970125 125.912586 51.803175 128.754984 51.501994 C 129.037342 54.062034 137.263355 62.589229 138.86338 62.40099 M 82.693077 12.386079 C 81.902476 12.668436 81.149523 12.950794 80.39657 13.233151 C 73.149396 18.334409 66.015165 20.310911 60.330369 22.833304 C 57.638562 26.598069 52.443185 32.678166 48.189 35.106439 M 110.062923 12.386079 C 110.853524 12.668436 111.625301 12.950794 112.35943 13.233151 C 119.606604 18.334409 126.740835 20.310911 132.425631 22.833304 C 135.117438 26.598069 140.312815 32.678166 144.567 35.106439 M 40.772412 119.606604 C 54.833811 114.580642 73.111748 109.573504 96.378 101.44161 M 151.983588 119.606604 C 137.922189 114.580642 119.644252 109.573504 96.378 101.44161 M 76.500037 175.136897 C 71.248189 155.842473 87.210796 126.119648 96.378 101.44161 M 60.763317 159.456648 C 62.363343 133.79977 78.853016 124.274913 96.378 101.44161 M 49.054896 144.491705 C 54.683221 122.204292 68.970506 119.663075 96.378 101.44161 M 131.992683 159.456648 C 130.392657 133.79977 113.902984 124.274913 96.378 101.44161 M 143.68228 144.491705 C 138.053955 122.204292 123.785494 119.663075 96.378 101.44161 M 39.210034 63.191591 C 53.49732 72.189381 72.264676 85.836656 96.378 101.44161 M 37.741775 81.620119 C 52.179652 85.836656 71.39878 93.516778 96.378 101.44161 M 38.701791 101.328667 C 53.026724 100.763952 71.963495 101.912205 96.378 101.44161 M 153.527142 63.191591 C 139.25868 72.189381 120.491324 85.836656 96.378 101.44161 M 155.014225 81.620119 C 140.576348 85.836656 121.338396 93.516778 96.378 101.44161 M 154.054209 101.328667 C 139.729276 100.763952 120.792505 101.912205 96.378 101.44161 M 96.378 118.797179 L 96.490943 118.665412 L 96.509767 118.646589 M 96.378 118.797179 C 95.09798 117.197154 93.159125 115.89831 90.373199 116.500672 C 89.620246 114.430051 88.810821 113.394741 86.928438 112.792378 C 87.154324 111.248824 86.589609 109.931156 85.309589 109.479384 C 86.589609 109.931156 87.154324 111.135881 86.928438 112.698259 M 96.378 118.797179 C 97.65802 117.197154 99.596875 115.89831 102.382801 116.500672 C 103.135754 114.430051 103.945179 113.394741 105.827562 112.792378 C 105.601676 111.248824 106.166391 109.931156 107.427587 109.479384 C 106.166391 109.931156 105.601676 111.135881 105.827562 112.698259 M 96.378 132.952698 C 95.267394 130.242067 91.144976 126.270239 85.704889 127.45614 C 85.064879 123.841965 82.391896 121.319572 78.890664 121.903111 C 78.928311 119.644252 76.914162 116.331258 74.711774 116.406553 M 96.378 147.390574 C 95.267394 144.679943 86.363723 138.712789 80.923637 139.898691 C 80.283627 136.284516 73.337634 132.651517 69.836402 133.235055 C 69.87405 130.957372 63.699834 124.839628 59.10682 125.987882 M 96.378 163.748481 C 96.020347 161.075497 83.20132 154.84481 76.763571 155.183639 C 75.615318 151.701231 66.241051 145.828196 63.398653 146.148202 C 64.56573 143.249332 56.69737 133.988009 52.669071 134.740962 C 52.424361 128.717337 46.043084 121.827816 41.732427 119.606604 C 42.824209 113.300621 41.713603 105.601676 39.642982 101.272195 C 39.360625 97.940378 38.682967 93.836783 37.779423 89.601422 M 96.378 176.831041 C 96.020347 174.158058 82.034243 167.513246 75.596494 167.852075 C 74.429416 164.350843 63.944544 156.407188 61.083322 156.727193 C 60.819789 154.167152 53.365553 145.639958 48.960777 144.32229 M 48.904305 144.209347 C 48.264295 142.176374 46.701918 138.599846 44.612473 134.948024 M 96.378 132.952698 C 97.488606 130.242067 101.611024 126.270239 107.051111 127.45614 C 107.691121 123.841965 110.364104 121.319572 113.865336 121.903111 C 113.827689 119.644252 115.841838 116.331258 118.044226 116.406553 M 96.378 147.390574 C 97.488606 144.679943 106.4111 138.712789 111.832363 139.898691 C 112.472373 136.284516 119.418366 132.651517 122.938421 133.235055 C 122.88195 130.957372 129.056166 124.839628 133.64918 125.987882 M 43.953639 44.01011 C 45.572488 47.963114 47.774876 52.010237 50.334916 56.189127 C 47.774876 52.010237 45.572488 47.963114 43.953639 44.01011 M 96.378 101.44161 C 96.396824 101.422786 96.396824 101.422786 96.415648 101.403962 M 50.861984 63.229239 C 61.233913 77.478877 78.38242 85.46018 96.378 101.44161 M 148.802361 44.01011 C 147.183512 47.963114 144.981124 52.010237 142.421084 56.189127 C 144.981124 52.010237 147.183512 47.963114 148.802361 44.01011 M 141.894016 63.229239 C 131.522087 77.478877 114.37358 85.46018 96.378 101.44161 M 96.378 11.049587 L 96.378 181.706413 M 116.255962 175.136897 C 121.507811 155.842473 105.545204 126.119648 96.378 101.44161 M 96.378 163.748481 C 96.735653 161.075497 109.55468 154.84481 115.992429 155.183639 C 117.140682 151.701231 126.514949 145.828196 129.376171 146.148202 C 128.19027 143.249332 136.05863 133.988009 140.086929 134.740962 C 140.331639 128.717337 146.712916 121.827816 151.023573 119.606604 C 149.931791 113.300621 151.042397 105.601676 153.113018 101.272195 C 153.395375 97.940378 154.073033 93.855607 154.976577 89.620246 M 96.378 176.831041 C 96.735653 174.158058 110.721757 167.513246 117.17833 167.852075 C 118.326584 164.350843 128.811456 156.407188 131.672678 156.727193 C 131.936211 154.185976 139.390447 145.639958 143.795223 144.32229 M 143.870518 144.209347 C 144.510529 142.176374 146.054082 138.599846 148.143527 134.948024 " transform="matrix(0.207516,0,0,0.207516,0,0)"/>
<path style="fill-rule:evenodd;fill:rgb(0%,0%,0%);fill-opacity:1;stroke-width:0.216;stroke-linecap:butt;stroke-linejoin:miter;stroke:rgb(0%,0%,0%);stroke-opacity:1;stroke-miterlimit:2.613;" d="M 92.236758 100.876895 C 81.488352 80.208332 61.911571 77.704762 45.233659 46.400736 C 35.049968 72.509386 37.214708 108.011126 59.295059 126.232591 C 74.824717 123.503136 85.196646 114.034751 92.236758 100.876895 Z M 92.236758 100.876895 " transform="matrix(0.207516,0,0,0.207516,0,0)"/>
<path style="fill-rule:evenodd;fill:rgb(100%,100%,100%);fill-opacity:1;stroke-width:0.216;stroke-linecap:butt;stroke-linejoin:miter;stroke:rgb(0%,0%,0%);stroke-opacity:1;stroke-miterlimit:2.613;" d="M 82.693077 100.632185 C 75.427079 88.340225 59.087996 83.464854 49.450196 68.499911 C 44.668944 79.75656 47.134866 104.227536 61.497446 115.390066 C 69.892874 116.688911 81.28129 110.740581 82.693077 100.632185 Z M 82.693077 100.632185 " transform="matrix(0.207516,0,0,0.207516,0,0)"/>
<path style="fill-rule:evenodd;fill:rgb(0%,0%,0%);fill-opacity:1;stroke-width:0.216;stroke-linecap:butt;stroke-linejoin:miter;stroke:rgb(0%,0%,0%);stroke-opacity:1;stroke-miterlimit:2.613;" d="M 100.70748 100.876895 C 111.455886 80.208332 131.013844 77.704762 147.710579 46.400736 C 157.875446 72.509386 155.710706 108.011126 133.64918 126.232591 C 118.119521 123.503136 107.728768 114.034751 100.70748 100.876895 Z M 100.70748 100.876895 " transform="matrix(0.207516,0,0,0.207516,0,0)"/>
<path style="fill-rule:evenodd;fill:rgb(100%,100%,100%);fill-opacity:1;stroke-width:0.216;stroke-linecap:butt;stroke-linejoin:miter;stroke:rgb(0%,0%,0%);stroke-opacity:1;stroke-miterlimit:2.613;" d="M 110.251161 100.632185 C 117.517159 88.340225 133.856242 83.464854 143.494042 68.499911 C 148.275294 79.75656 145.809373 104.227536 131.427968 115.390066 C 123.051364 116.688911 111.662948 110.740581 110.251161 100.632185 Z M 110.251161 100.632185 " transform="matrix(0.207516,0,0,0.207516,0,0)"/>
</g>
</svg>
